<svg width="1440" height="800" viewBox="0 0 1440 800" fill="none" xmlns="http://www.w3.org/2000/svg">
<rect width="1440" height="800" fill="#F2F2F2"/>
<path d="M213.36 788.808C194.753 796.269 172.045 800 145.237 800C119.059 800 96.8243 796.398 78.5318 789.194C60.2392 781.991 45.416 772.214 34.062 759.865C22.3926 747.258 13.8771 732.722 8.51547 716.256C2.83847 699.533 -1.35634e-06 681.781 0 663L-9.89383e-06 800L145.237 800L290 800L290 663C290 680.752 287.477 697.861 282.431 714.327C277.069 730.793 268.869 745.457 257.83 758.321C246.476 771.185 231.653 781.347 213.36 788.808Z" fill="#2763BD"/>
<path d="M1226.64 11.1915C1245.25 3.73051 1267.96 -3.05176e-05 1294.76 -3.05176e-05C1320.94 -3.05176e-05 1343.18 3.60185 1361.47 10.8056C1379.76 18.0094 1394.58 27.7859 1405.94 40.1352C1417.61 52.7417 1426.12 67.2779 1431.48 83.7437C1437.16 100.467 1440 118.219 1440 137L1440 -3.05176e-05L1294.76 -3.05176e-05L1150 -3.05176e-05L1150 137C1150 119.248 1152.52 102.139 1157.57 85.6732C1162.93 69.2075 1171.13 54.5427 1182.17 41.6789C1193.52 28.815 1208.35 18.6526 1226.64 11.1915Z" fill="#2763BD"/>
<path d="M501.153 788.808C482.738 796.269 460.265 800 433.734 800C407.828 800 385.823 796.398 367.719 789.194C349.616 781.991 334.946 772.214 323.71 759.865C312.161 747.258 303.734 732.722 298.427 716.256C292.809 699.533 290 681.781 290 663L290 800L433.734 800L577 800L577 663C577 680.752 574.503 697.861 569.509 714.327C564.203 730.793 556.088 745.457 545.163 758.321C533.927 771.185 519.257 781.347 501.153 788.808Z" fill="#2763BD"/>
<path d="M938.847 11.1915C957.262 3.73051 979.735 -3.05176e-05 1006.27 -3.05176e-05C1032.17 -3.05176e-05 1054.18 3.60185 1072.28 10.8056C1090.38 18.0094 1105.05 27.7859 1116.29 40.1352C1127.84 52.7417 1136.27 67.2779 1141.57 83.7437C1147.19 100.467 1150 118.219 1150 137L1150 -3.05176e-05L1006.27 -3.05176e-05L863 -3.05176e-05L863 137C863 119.248 865.497 102.139 870.491 85.6732C875.797 69.2075 883.912 54.5427 894.837 41.6789C906.073 28.815 920.743 18.6526 938.847 11.1915Z" fill="#2763BD"/>
<path d="M1077.15 788.808C1058.74 796.269 1036.26 800 1009.73 800C983.828 800 961.823 796.398 943.719 789.194C925.616 781.991 910.946 772.214 899.71 759.865C888.161 747.258 879.734 732.722 874.427 716.256C868.809 699.533 866 681.781 866 663L866 800L1009.73 800L1153 800L1153 663C1153 680.752 1150.5 697.861 1145.51 714.327C1140.2 730.793 1132.09 745.457 1121.16 758.321C1109.93 771.185 1095.26 781.347 1077.15 788.808Z" fill="#2763BD"/>
<path d="M362.847 11.1915C381.262 3.73051 403.735 -3.05176e-05 430.266 -3.05176e-05C456.172 -3.05176e-05 478.177 3.60185 496.281 10.8056C514.384 18.0094 529.054 27.7859 540.29 40.1352C551.839 52.7417 560.266 67.2779 565.573 83.7437C571.191 100.467 574 118.219 574 137L574 -3.05176e-05L430.266 -3.05176e-05L287 -3.05176e-05L287 137C287 119.248 289.497 102.139 294.491 85.6732C299.797 69.2075 307.912 54.5427 318.837 41.6789C330.073 28.815 344.743 18.6526 362.847 11.1915Z" fill="#2763BD"/>
<path d="M789.625 788.808C771.081 796.269 748.451 800 721.736 800C695.649 800 673.49 796.398 655.261 789.194C637.032 781.991 622.259 772.214 610.945 759.865C599.315 747.258 590.829 732.722 585.486 716.256C579.829 699.533 577 681.781 577 663L577 800L721.736 800L866 800L866 663C866 680.752 863.486 697.861 858.457 714.327C853.114 730.793 844.942 745.457 833.941 758.321C822.626 771.185 807.854 781.347 789.625 788.808Z" fill="#2763BD"/>
<path d="M650.375 11.1915C668.919 3.73051 691.549 -3.05176e-05 718.264 -3.05176e-05C744.351 -3.05176e-05 766.51 3.60185 784.739 10.8056C802.968 18.0094 817.741 27.7859 829.055 40.1352C840.685 52.7417 849.171 67.2779 854.514 83.7437C860.171 100.467 863 118.219 863 137L863 -3.05176e-05L718.264 -3.05176e-05L574 -3.05176e-05L574 137C574 119.248 576.514 102.139 581.543 85.6732C586.886 69.2075 595.058 54.5427 606.059 41.6789C617.374 28.815 632.146 18.6526 650.375 11.1915Z" fill="#2763BD"/>
<path d="M1364.15 788.808C1345.74 796.269 1323.26 800 1296.73 800C1270.83 800 1248.82 796.398 1230.72 789.194C1212.62 781.991 1197.95 772.214 1186.71 759.865C1175.16 747.258 1166.73 732.722 1161.43 716.256C1155.81 699.533 1153 681.781 1153 663L1153 800L1296.73 800L1440 800L1440 663C1440 680.752 1437.5 697.861 1432.51 714.327C1427.2 730.793 1419.09 745.457 1408.16 758.321C1396.93 771.185 1382.26 781.347 1364.15 788.808Z" fill="#2763BD"/>
<path d="M75.8467 11.1915C94.2621 3.73051 116.735 -3.05176e-05 143.266 -3.05176e-05C169.172 -3.05176e-05 191.177 3.60185 209.281 10.8056C227.384 18.0094 242.054 27.7859 253.29 40.1352C264.839 52.7417 273.266 67.2779 278.573 83.7437C284.191 100.467 287 118.219 287 137L287 -3.05176e-05L143.266 -3.05176e-05L-1.89765e-05 -3.05176e-05L1.47699e-05 137C1.45e-05 119.248 2.49702 102.139 7.49104 85.6732C12.7972 69.2075 20.9125 54.5427 31.8369 41.6789C43.0734 28.815 57.7434 18.6526 75.8467 11.1915Z" fill="#2763BD"/>
</svg>
