<svg width="112" height="32" viewBox="0 0 112 32" fill="none" xmlns="http://www.w3.org/2000/svg">
<path d="M0 16C0 7.16344 7.16344 0 16 0H96C104.837 0 112 7.16344 112 16C112 24.8366 104.837 32 96 32H16C7.16344 32 0 24.8366 0 16Z" fill="#E8E8E8"/>
<path d="M23.4879 9.32687L23.1227 9L22.7553 9.33212C20.8501 11.0551 19.8523 13.4604 20.0178 15.9314L20.0195 15.9573C20.0401 16.2648 20.0792 16.5748 20.1358 16.8786L21.2766 23L23.1264 22.0488L25.0038 22.9949L26.1436 16.8786C26.2002 16.575 26.2394 16.265 26.26 15.9573C26.4266 13.469 25.4163 11.0523 23.4879 9.32687ZM25.3795 15.9059C25.3608 16.1836 25.3255 16.4634 25.2744 16.7375L24.3446 21.727L23.5654 21.3343V16.7198H22.6831V21.3367L21.9339 21.7219L21.005 16.7375C20.9539 16.4633 20.9186 16.1835 20.9 15.906L20.8983 15.8802C20.7703 13.9686 21.4139 12.1006 22.6831 10.6266V15.3312H23.5654V10.6182C24.8544 12.0973 25.5086 13.9777 25.3795 15.9059Z" fill="#424242"/>
<path d="M34.98 21V13.692H36.212V16.702H37.024L39.32 13.692H40.72L37.99 17.234L41.042 21H39.614L37.024 17.836H36.212V21H34.98ZM41.6098 21.056V19.95C41.8524 19.95 42.0671 19.8893 42.2538 19.768C42.4498 19.6373 42.6224 19.4227 42.7718 19.124C42.9211 18.816 43.0378 18.396 43.1218 17.864C43.2151 17.3227 43.2758 16.6367 43.3038 15.806L43.3878 13.692H48.3578V21H47.1258V14.784H44.4798L44.4518 15.918C44.4144 16.9167 44.3304 17.7473 44.1998 18.41C44.0691 19.0727 43.8871 19.5953 43.6538 19.978C43.4204 20.3607 43.1311 20.636 42.7858 20.804C42.4498 20.972 42.0578 21.056 41.6098 21.056ZM49.7735 18.886C49.7735 18.4193 49.9042 18.018 50.1655 17.682C50.4362 17.3367 50.8048 17.0707 51.2715 16.884C51.7382 16.6973 52.2795 16.604 52.8955 16.604C53.2222 16.604 53.5675 16.632 53.9315 16.688C54.2955 16.7347 54.6175 16.8093 54.8975 16.912V16.38C54.8975 15.82 54.7295 15.3813 54.3935 15.064C54.0575 14.7373 53.5815 14.574 52.9655 14.574C52.5642 14.574 52.1768 14.6487 51.8035 14.798C51.4395 14.938 51.0522 15.1433 50.6415 15.414L50.1935 14.546C50.6695 14.2193 51.1455 13.9767 51.6215 13.818C52.0975 13.65 52.5922 13.566 53.1055 13.566C54.0388 13.566 54.7762 13.8273 55.3175 14.35C55.8588 14.8633 56.1295 15.582 56.1295 16.506V19.6C56.1295 19.7493 56.1575 19.8613 56.2135 19.936C56.2788 20.0013 56.3815 20.0387 56.5215 20.048V21C56.4002 21.0187 56.2928 21.0327 56.1995 21.042C56.1155 21.0513 56.0455 21.056 55.9895 21.056C55.7002 21.056 55.4808 20.9767 55.3315 20.818C55.1915 20.6593 55.1122 20.4913 55.0935 20.314L55.0655 19.852C54.7482 20.2627 54.3328 20.58 53.8195 20.804C53.3062 21.028 52.7975 21.14 52.2935 21.14C51.8082 21.14 51.3742 21.042 50.9915 20.846C50.6088 20.6407 50.3102 20.37 50.0955 20.034C49.8808 19.6887 49.7735 19.306 49.7735 18.886ZM54.5335 19.404C54.6455 19.2733 54.7342 19.1427 54.7995 19.012C54.8648 18.872 54.8975 18.7553 54.8975 18.662V17.752C54.6082 17.64 54.3048 17.556 53.9875 17.5C53.6702 17.4347 53.3575 17.402 53.0495 17.402C52.4242 17.402 51.9155 17.528 51.5235 17.78C51.1408 18.0227 50.9495 18.3587 50.9495 18.788C50.9495 19.0213 51.0102 19.25 51.1315 19.474C51.2622 19.6887 51.4488 19.866 51.6915 20.006C51.9435 20.146 52.2515 20.216 52.6155 20.216C52.9982 20.216 53.3622 20.1413 53.7075 19.992C54.0528 19.8333 54.3282 19.6373 54.5335 19.404ZM61.3335 21.14C60.7828 21.14 60.2788 21.042 59.8215 20.846C59.3735 20.6407 58.9815 20.3607 58.6455 20.006C58.3188 19.6513 58.0621 19.2453 57.8755 18.788C57.6981 18.3307 57.6095 17.8453 57.6095 17.332C57.6095 16.6413 57.7635 16.0113 58.0715 15.442C58.3795 14.8727 58.8135 14.42 59.3735 14.084C59.9335 13.7387 60.5821 13.566 61.3195 13.566C62.0381 13.566 62.6635 13.7293 63.1955 14.056C63.7368 14.3733 64.1381 14.8027 64.3995 15.344L63.1955 15.722C63.0088 15.3767 62.7475 15.1107 62.4115 14.924C62.0755 14.728 61.7021 14.63 61.2915 14.63C60.8435 14.63 60.4328 14.7467 60.0595 14.98C59.6955 15.2133 59.4061 15.5353 59.1915 15.946C58.9768 16.3473 58.8695 16.8093 58.8695 17.332C58.8695 17.8453 58.9768 18.312 59.1915 18.732C59.4155 19.1427 59.7095 19.4693 60.0735 19.712C60.4468 19.9547 60.8575 20.076 61.3055 20.076C61.5948 20.076 61.8701 20.0247 62.1315 19.922C62.4021 19.8193 62.6355 19.684 62.8315 19.516C63.0368 19.3387 63.1768 19.1473 63.2515 18.942L64.4555 19.306C64.3061 19.6607 64.0775 19.978 63.7695 20.258C63.4708 20.5287 63.1115 20.7433 62.6915 20.902C62.2808 21.0607 61.8281 21.14 61.3335 21.14ZM69.0171 21.14C68.4664 21.14 67.9624 21.042 67.5051 20.846C67.0571 20.6407 66.6651 20.3607 66.3291 20.006C66.0024 19.6513 65.7457 19.2453 65.5591 18.788C65.3817 18.3307 65.2931 17.8453 65.2931 17.332C65.2931 16.6413 65.4471 16.0113 65.7551 15.442C66.0631 14.8727 66.4971 14.42 67.0571 14.084C67.6171 13.7387 68.2657 13.566 69.0031 13.566C69.7217 13.566 70.3471 13.7293 70.8791 14.056C71.4204 14.3733 71.8217 14.8027 72.0831 15.344L70.8791 15.722C70.6924 15.3767 70.4311 15.1107 70.0951 14.924C69.7591 14.728 69.3857 14.63 68.9751 14.63C68.5271 14.63 68.1164 14.7467 67.7431 14.98C67.3791 15.2133 67.0897 15.5353 66.8751 15.946C66.6604 16.3473 66.5531 16.8093 66.5531 17.332C66.5531 17.8453 66.6604 18.312 66.8751 18.732C67.0991 19.1427 67.3931 19.4693 67.7571 19.712C68.1304 19.9547 68.5411 20.076 68.9891 20.076C69.2784 20.076 69.5537 20.0247 69.8151 19.922C70.0857 19.8193 70.3191 19.684 70.5151 19.516C70.7204 19.3387 70.8604 19.1473 70.9351 18.942L72.1391 19.306C71.9897 19.6607 71.7611 19.978 71.4531 20.258C71.1544 20.5287 70.7951 20.7433 70.3751 20.902C69.9644 21.0607 69.5117 21.14 69.0171 21.14ZM73.521 21V13.706H74.753V19.348L78.841 13.692H79.961V21H78.729V15.47L74.697 21H73.521ZM81.9155 21V13.692H83.1475V16.702H83.9595L86.2555 13.692H87.6555L84.9255 17.234L87.9775 21H86.5495L83.9595 17.836H83.1475V21H81.9155ZM88.6153 18.886C88.6153 18.4193 88.746 18.018 89.0073 17.682C89.278 17.3367 89.6466 17.0707 90.1133 16.884C90.58 16.6973 91.1213 16.604 91.7373 16.604C92.064 16.604 92.4093 16.632 92.7733 16.688C93.1373 16.7347 93.4593 16.8093 93.7393 16.912V16.38C93.7393 15.82 93.5713 15.3813 93.2353 15.064C92.8993 14.7373 92.4233 14.574 91.8073 14.574C91.406 14.574 91.0186 14.6487 90.6453 14.798C90.2813 14.938 89.894 15.1433 89.4833 15.414L89.0353 14.546C89.5113 14.2193 89.9873 13.9767 90.4633 13.818C90.9393 13.65 91.434 13.566 91.9473 13.566C92.8806 13.566 93.618 13.8273 94.1593 14.35C94.7006 14.8633 94.9713 15.582 94.9713 16.506V19.6C94.9713 19.7493 94.9993 19.8613 95.0553 19.936C95.1206 20.0013 95.2233 20.0387 95.3633 20.048V21C95.242 21.0187 95.1346 21.0327 95.0413 21.042C94.9573 21.0513 94.8873 21.056 94.8313 21.056C94.542 21.056 94.3226 20.9767 94.1733 20.818C94.0333 20.6593 93.954 20.4913 93.9353 20.314L93.9073 19.852C93.59 20.2627 93.1746 20.58 92.6613 20.804C92.148 21.028 91.6393 21.14 91.1353 21.14C90.65 21.14 90.216 21.042 89.8333 20.846C89.4506 20.6407 89.152 20.37 88.9373 20.034C88.7226 19.6887 88.6153 19.306 88.6153 18.886ZM93.3753 19.404C93.4873 19.2733 93.576 19.1427 93.6413 19.012C93.7066 18.872 93.7393 18.7553 93.7393 18.662V17.752C93.45 17.64 93.1466 17.556 92.8293 17.5C92.512 17.4347 92.1993 17.402 91.8913 17.402C91.266 17.402 90.7573 17.528 90.3653 17.78C89.9826 18.0227 89.7913 18.3587 89.7913 18.788C89.7913 19.0213 89.852 19.25 89.9733 19.474C90.104 19.6887 90.2906 19.866 90.5333 20.006C90.7853 20.146 91.0933 20.216 91.4573 20.216C91.84 20.216 92.204 20.1413 92.5493 19.992C92.8946 19.8333 93.17 19.6373 93.3753 19.404Z" fill="#424242"/>
</svg>
