<svg width="32" height="34" viewBox="0 0 32 34" fill="none" xmlns="http://www.w3.org/2000/svg">
<path d="M29.6521 3.84592e-08H2.07297C1.12863 0.0006226 0.363092 0.840662 0.363281 1.87681V32.1249C0.363849 33.1606 1.12977 34.0002 2.07449 34H16.9229V20.8516H12.8965V15.7051H16.9229V11.9176C16.9229 7.52549 19.3676 5.13486 22.9399 5.13486C24.6509 5.13486 26.1212 5.27473 26.5498 5.33719V9.92773H24.0865C22.1429 9.92773 21.7666 10.9406 21.7666 12.4273V15.7051H26.4136L25.8081 20.8516H21.7666V34H29.6521C30.597 34.0002 31.3631 33.1604 31.3633 32.124C31.3633 32.1238 31.3633 32.1236 31.3633 32.1232V1.87515C31.3629 0.839417 30.5968 -0.000207481 29.6521 3.84592e-08Z" fill="white"/>
</svg>
