<svg width="36" height="35" viewBox="0 0 36 35" fill="none" xmlns="http://www.w3.org/2000/svg">
<path d="M24.75 0H11.25C5.03775 0 0 4.8087 0 10.7385V23.6247C0 29.5545 5.03775 34.3632 11.25 34.3632H24.75C30.9622 34.3632 36 29.5545 36 23.6247V10.7385C36 4.8087 30.9622 0 24.75 0ZM32.625 23.6247C32.625 27.7698 29.0925 31.1417 24.75 31.1417H11.25C6.9075 31.1417 3.375 27.7698 3.375 23.6247V10.7385C3.375 6.59344 6.9075 3.22155 11.25 3.22155H24.75C29.0925 3.22155 32.625 6.59344 32.625 10.7385V23.6247Z" fill="white"/>
<path d="M17.999 8.58987C13.0287 8.58987 8.999 12.4364 8.999 17.1807C8.999 21.9249 13.0287 25.7715 17.999 25.7715C22.9692 25.7715 26.999 21.9249 26.999 17.1807C26.999 12.4364 22.9692 8.58987 17.999 8.58987ZM17.999 22.5499C14.8985 22.5499 12.374 20.1402 12.374 17.1807C12.374 14.219 14.8985 11.8114 17.999 11.8114C21.0995 11.8114 23.624 14.219 23.624 17.1807C23.624 20.1402 21.0995 22.5499 17.999 22.5499Z" fill="white"/>
<path d="M27.674 9.09047C28.336 9.09047 28.8727 8.57817 28.8727 7.94622C28.8727 7.31427 28.336 6.80197 27.674 6.80197C27.0119 6.80197 26.4752 7.31427 26.4752 7.94622C26.4752 8.57817 27.0119 9.09047 27.674 9.09047Z" fill="white"/>
</svg>
