<svg width="81" height="32" viewBox="0 0 81 32" fill="none" xmlns="http://www.w3.org/2000/svg">
<path d="M0 16C0 7.16344 7.16344 0 16 0H65C73.8366 0 81 7.16344 81 16C81 24.8366 73.8366 32 65 32H16C7.16344 32 0 24.8366 0 16Z" fill="#E8E8E8"/>
<path d="M29.7404 13.4755C29.3314 12.3676 28.5729 11.366 27.5471 10.579C26.4847 9.76398 25.2058 9.24057 23.8486 9.0654C22.0266 8.83019 20.2103 9.23401 18.7344 10.2024C17.6787 10.8951 16.8914 11.8302 16.4658 12.8686C16.4614 12.8783 16.4569 12.8881 16.4526 12.8978L16.4537 12.8983C16.3194 13.232 16.2225 13.5761 16.1658 13.9261L16.1607 13.9255C16.1562 13.9603 16.1531 13.9952 16.1507 14.0299C16.1487 14.044 16.1464 14.0579 16.1445 14.072L16.1483 14.073C16.1304 14.4783 16.2544 14.8731 16.5051 15.1981C16.7862 15.5624 17.1922 15.7955 17.6485 15.8544C17.723 15.864 17.7972 15.8687 17.8709 15.8687C17.9035 15.8687 17.936 15.8676 17.9683 15.8657L20.9775 23H25.0207L28 15.9975C28.5621 15.993 29.0899 15.739 29.4479 15.2896C29.8597 14.7728 29.969 14.0946 29.7404 13.4755ZM17.7537 15.0408C17.3122 14.9838 16.9862 14.6151 16.9679 14.1847L16.9702 14.1787L16.9675 14.1777C16.9668 14.1559 16.9668 14.134 16.9677 14.112C17.0133 13.8013 17.097 13.4952 17.217 13.1982C17.5504 12.4698 18.08 11.949 18.8352 11.6067C19.5061 11.3026 20.354 11.1485 21.3554 11.1485C22.1303 11.1485 22.8569 11.3164 23.5022 11.6325C21.4535 11.7043 19.6073 12.8285 18.647 14.6039C18.4631 14.9158 18.1128 15.0871 17.7537 15.0408ZM22.5895 22.1797H21.5218L18.7564 15.6233C18.9992 15.4775 19.2071 15.2713 19.3562 15.016C19.3595 15.0104 19.3632 15.0039 19.3669 14.9971C20.0377 13.7543 21.2191 12.8844 22.5895 12.5745V22.1797H22.5895ZM24.4783 22.1797H23.4098V12.4585C23.5097 12.4526 23.6101 12.4491 23.7111 12.4491H24.6652C24.9746 12.7476 25.2479 13.0932 25.4776 13.483C25.6229 13.7458 26.3138 14.994 26.3805 15.1027C26.5756 15.4207 26.8555 15.6672 27.1839 15.8205L24.4783 22.1797ZM28.8064 14.7785C28.5737 15.0705 28.214 15.2163 27.8442 15.1685C27.526 15.1275 27.2473 14.9471 27.0797 14.6739C27.0308 14.5935 26.5097 13.6543 26.1926 13.0812L26.1873 13.0719C25.1626 11.3282 23.4014 10.3282 21.3553 10.3282C20.8838 10.3282 20.4402 10.36 20.0266 10.4231C21.1601 9.90428 22.4492 9.71184 23.7436 9.87891C24.9575 10.0356 26.1001 10.5027 27.0478 11.2299C27.9505 11.9224 28.6155 12.7972 28.9709 13.7596C29.0992 14.1071 29.0377 14.488 28.8064 14.7785Z" fill="#424242"/>
<path d="M34.98 21V13.692H36.212V16.702H37.024L39.32 13.692H40.72L37.99 17.234L41.042 21H39.614L37.024 17.836H36.212V21H34.98ZM41.6798 18.886C41.6798 18.4193 41.8104 18.018 42.0718 17.682C42.3424 17.3367 42.7111 17.0707 43.1778 16.884C43.6444 16.6973 44.1858 16.604 44.8018 16.604C45.1284 16.604 45.4738 16.632 45.8378 16.688C46.2018 16.7347 46.5238 16.8093 46.8038 16.912V16.38C46.8038 15.82 46.6358 15.3813 46.2998 15.064C45.9638 14.7373 45.4878 14.574 44.8718 14.574C44.4704 14.574 44.0831 14.6487 43.7098 14.798C43.3458 14.938 42.9584 15.1433 42.5478 15.414L42.0998 14.546C42.5758 14.2193 43.0518 13.9767 43.5278 13.818C44.0038 13.65 44.4984 13.566 45.0118 13.566C45.9451 13.566 46.6824 13.8273 47.2238 14.35C47.7651 14.8633 48.0358 15.582 48.0358 16.506V19.6C48.0358 19.7493 48.0638 19.8613 48.1198 19.936C48.1851 20.0013 48.2878 20.0387 48.4278 20.048V21C48.3064 21.0187 48.1991 21.0327 48.1058 21.042C48.0218 21.0513 47.9518 21.056 47.8958 21.056C47.6064 21.056 47.3871 20.9767 47.2378 20.818C47.0978 20.6593 47.0184 20.4913 46.9998 20.314L46.9718 19.852C46.6544 20.2627 46.2391 20.58 45.7258 20.804C45.2124 21.028 44.7038 21.14 44.1998 21.14C43.7144 21.14 43.2804 21.042 42.8978 20.846C42.5151 20.6407 42.2164 20.37 42.0018 20.034C41.7871 19.6887 41.6798 19.306 41.6798 18.886ZM46.4398 19.404C46.5518 19.2733 46.6404 19.1427 46.7058 19.012C46.7711 18.872 46.8038 18.7553 46.8038 18.662V17.752C46.5144 17.64 46.2111 17.556 45.8938 17.5C45.5764 17.4347 45.2638 17.402 44.9558 17.402C44.3304 17.402 43.8218 17.528 43.4298 17.78C43.0471 18.0227 42.8558 18.3587 42.8558 18.788C42.8558 19.0213 42.9164 19.25 43.0378 19.474C43.1684 19.6887 43.3551 19.866 43.5978 20.006C43.8498 20.146 44.1578 20.216 44.5218 20.216C44.9044 20.216 45.2684 20.1413 45.6138 19.992C45.9591 19.8333 46.2344 19.6373 46.4398 19.404ZM49.9917 21V13.706H51.2237V19.348L55.3117 13.692H56.4317V21H55.1997V15.47L51.1677 21H49.9917ZM53.2257 12.866C52.5537 12.866 52.0451 12.7073 51.6997 12.39C51.3544 12.0633 51.1817 11.662 51.1817 11.186H52.0497C52.0497 11.4473 52.1384 11.6667 52.3157 11.844C52.5024 12.012 52.8057 12.096 53.2257 12.096C53.6364 12.096 53.9257 12.0167 54.0937 11.858C54.2617 11.69 54.3644 11.466 54.4017 11.186H55.2697C55.2697 11.662 55.0971 12.0633 54.7517 12.39C54.4064 12.7073 53.8977 12.866 53.2257 12.866ZM60.1783 21V14.784H57.6583V13.692H63.9303V14.784H61.4103V21H60.1783Z" fill="#424242"/>
</svg>
