<svg width="91" height="20" viewBox="0 0 91 20" fill="none" xmlns="http://www.w3.org/2000/svg">
<path fill-rule="evenodd" clip-rule="evenodd" d="M43.1809 1.20375C42.409 2.00625 42.023 3.06734 42.023 4.38701V19.046H44.6494V9.46436H47.6115V7.29744H44.6494V5.69776V4.14626C44.6494 3.48642 44.8188 2.96925 45.1577 2.59475C45.5154 2.22025 46.0238 2.033 46.6827 2.033C47.0592 2.033 47.4828 2.07759 47.9535 2.16675V0.1605C47.5017 0.0534997 46.9086 0 46.1744 0C44.9694 0 43.9716 0.40125 43.1809 1.20375ZM20.5905 19.1522C19.4584 19.1522 18.4451 18.9272 17.5506 18.4773C16.6701 18.0132 15.9782 17.3805 15.475 16.579C14.9858 15.7635 14.7413 14.8354 14.7413 13.7949C14.7413 13.2747 14.8461 12.6771 15.0557 12.0021C15.2794 11.3272 15.5938 10.6382 15.9992 9.93513L19.6681 3.52326L20.0302 3.72761L21.5637 4.57104L18.132 10.8705C17.8847 11.3263 17.6868 11.7951 17.5384 12.277C17.39 12.7588 17.3157 13.2081 17.3157 13.6249C17.3157 14.2369 17.458 14.7904 17.7424 15.2853C18.0269 15.7671 18.4226 16.1448 18.9297 16.4183C19.4491 16.6918 20.0304 16.8285 20.6735 16.8285C21.4032 16.8285 22.0339 16.6332 22.5657 16.2425C23.1099 15.8518 23.6232 15.2202 24.1055 14.3476L27.8015 7.84047L27.8241 7.79715L27.8256 7.79799L27.9788 7.52834L28.1985 7.65392L30.1297 8.71182L26.1673 15.5877C25.4685 16.811 24.6648 17.7109 23.7563 18.2874C22.8618 18.8639 21.8065 19.1522 20.5905 19.1522ZM90.945 12.4646C90.9818 12.2946 91.0001 12.0017 91.0001 11.5861C91.0001 10.1692 90.7152 8.9128 90.1453 7.81703C89.5755 6.70237 88.7942 5.83331 87.8015 5.20986C86.8088 4.5864 85.6875 4.27467 84.4375 4.27467C83.1139 4.27467 81.9374 4.60529 80.908 5.26653C79.8785 5.90888 79.0697 6.79683 78.4814 7.93039C77.9116 9.06394 77.6266 10.3392 77.6266 11.7561C77.6266 13.2109 77.9208 14.5145 78.509 15.6669C79.1156 16.8005 79.9429 17.6884 80.9907 18.3308C82.0385 18.9542 83.2242 19.2659 84.5478 19.2659C85.6323 19.2659 86.9176 19.106 87.8183 18.7092C88.7191 18.2936 89.3302 17.7393 89.7782 17.1688C90.0419 16.833 90.1399 16.6566 90.1817 16.5345L88.7246 15.1223C88.4401 15.6696 87.9572 16.1303 87.4823 16.4841C86.747 17.032 85.5404 17.2539 84.5478 17.2539C83.7205 17.2539 82.976 17.0461 82.3143 16.6304C81.6709 16.1959 81.1561 15.6197 80.7701 14.9018C80.4024 14.1649 80.2186 13.3526 80.2186 12.4646H90.945ZM87.967 8.49717C88.3162 9.1773 88.4909 9.94245 88.4909 10.7926H80.2186C80.2738 9.45124 80.6874 8.36492 81.4594 7.53364C82.2499 6.68348 83.2334 6.25839 84.4099 6.25839C85.2004 6.25839 85.8989 6.45677 86.5055 6.85351C87.1305 7.25026 87.6177 7.79814 87.967 8.49717ZM75.4856 17.3077C75.184 17.6393 74.7604 17.9571 74.2147 18.2611C73.6833 18.5652 73.0658 18.8139 72.3621 19.0074C71.6727 19.2008 70.9331 19.2975 70.1432 19.2975C68.7933 19.2975 67.5726 18.9935 66.4811 18.3855C65.404 17.7637 64.5424 16.8931 63.8961 15.7738C63.2642 14.6545 62.9483 13.3417 62.9483 11.8355C62.9483 10.7715 63.1422 9.79034 63.5299 8.89213C63.9177 7.99392 64.4562 7.21317 65.1455 6.54987C65.8349 5.88658 66.6247 5.37529 67.5151 5.01601C68.4055 4.6429 69.3462 4.45635 70.3371 4.45635C71.1557 4.45635 71.9169 4.58072 72.6206 4.82946C73.3386 5.06437 73.9633 5.37529 74.4947 5.76221C75.0404 6.13531 75.4641 6.53605 75.7657 6.96443L74.2147 8.51903C73.6833 7.99392 73.0945 7.55863 72.4482 7.21317C71.802 6.8677 71.0983 6.69497 70.3371 6.69497C69.4754 6.69497 68.6569 6.90225 67.8814 7.31681C67.1202 7.73136 66.5027 8.32556 66.0288 9.09941C65.5548 9.85943 65.3179 10.7715 65.3179 11.8355C65.3179 12.9963 65.5548 13.9636 66.0288 14.7374C66.517 15.5112 67.1561 16.0916 67.946 16.4785C68.7502 16.8517 69.6119 17.0382 70.531 17.0382C71.3783 17.0382 72.1251 16.8793 72.7714 16.5615C73.4176 16.2298 73.9346 15.8705 74.3224 15.4836L75.4856 17.3077ZM6.48668 19.1992C5.13266 19.1992 3.92811 18.9379 2.87303 18.4154C1.83554 17.8929 1.01785 17.17 0.419976 16.2469C0.328815 16.0991 0.244814 15.9482 0.167974 15.794C0.107556 15.6727 0.0515645 15.5495 0 15.4242L2.44317 13.8519L2.44769 13.8709L2.46486 13.8597C2.64294 14.6034 3.00431 15.2445 3.54897 15.7832C4.35786 16.5499 5.39425 16.9333 6.65815 16.9333C7.82093 16.9333 8.76464 16.6499 9.48928 16.0832C10.2139 15.4999 10.5762 14.7582 10.5762 13.8581C10.5762 13.3633 10.4393 12.9209 10.1653 12.5309C10.0698 12.4056 9.96017 12.2857 9.83655 12.1712C9.30901 11.6486 8.55287 11.2741 7.56813 11.0477L5.32609 10.5513C1.93226 9.85459 0.235337 8.12153 0.235337 5.35211C0.235337 4.30705 0.507899 3.38391 1.05302 2.58269C1.59815 1.76406 2.35429 1.13702 3.32144 0.701578C4.30618 0.248718 5.42281 0.0222879 6.67132 0.0222879C7.95499 0.0222879 9.10679 0.292262 10.1267 0.832211C11.1466 1.35474 11.9467 2.095 12.527 3.05297C12.5724 3.12655 12.6161 3.20099 12.658 3.27628C12.7425 3.42779 12.8199 3.58276 12.8904 3.74118L11.2459 4.90977L10.6299 5.36101C10.442 4.66308 10.104 4.06191 9.61567 3.55748C8.85733 2.7741 7.88834 2.38241 6.70871 2.38241C5.61333 2.38241 4.72018 2.66576 4.02925 3.23246C3.33832 3.7825 2.99285 4.49921 2.99285 5.3826C2.99285 6.13264 3.22035 6.75768 3.67536 7.25771C3.78847 7.37787 3.9146 7.48928 4.05375 7.59193C4.45849 7.84631 4.95295 8.04026 5.53711 8.17378L7.80553 8.67019C11.4104 9.41915 13.2128 11.1261 13.2128 13.791C13.2128 14.8361 12.9314 15.7679 12.3687 16.5865C11.806 17.4052 11.0147 18.0496 9.99481 18.5199C8.97491 18.9728 7.80553 19.1992 6.48668 19.1992Z" fill="white"/>
<path d="M34.2259 8.57677H34.3076C34.5477 7.3175 34.9186 6.73695 35.6944 6.03324C36.4887 5.31102 37.5879 5.03125 38.7147 5.03125C39.0287 5.03125 39.3335 5.06829 39.6291 5.14236V7.55905C39.2596 7.48498 38.8625 7.44794 38.4376 7.44794C37.1815 7.44794 36.1839 7.87387 35.445 8.72573C34.7686 9.80999 34.3829 11.1203 34.3367 12.448V19.0592H31.7598L31.7598 5.19792H34.3367L34.2259 8.57677Z" fill="white"/>
<path fill-rule="evenodd" clip-rule="evenodd" d="M49.8255 18.2511C50.6195 18.9229 51.6906 19.2588 53.0386 19.2588C54.2759 19.2588 55.3605 19.0272 56.1915 18.3927C57.0224 17.7396 57.2027 17.4359 57.7083 16.4229H57.803C57.803 17.9717 57.8953 18.3538 58.08 19.0069H60.5729C60.3513 17.8872 60.2405 16.553 60.2405 15.0042V10.2177C60.2405 9.13536 60.0608 7.92254 59.5622 7.08281C59.0636 6.22442 58.3711 5.56196 57.4847 5.09544C56.5984 4.61027 55.5919 4.36768 54.4655 4.36768C53.3575 4.36768 52.3696 4.58227 51.5016 5.01147C51.3285 5.09711 50.9309 5.2938 50.5993 5.52828C50.3847 5.68006 50.204 5.82079 50.0635 5.95673L50.6864 8.18647C50.9604 7.83769 51.3142 7.62112 51.6971 7.41806C52.6521 6.91154 53.3026 6.68641 54.2813 6.68641C55.2416 6.68641 56.2562 6.7836 56.8656 7.41806C57.475 8.05253 57.6645 9.1167 57.6645 10.1057V10.7495L54.8668 11.0014C52.8724 11.1694 51.3397 11.6452 50.2687 12.429C49.1976 13.1941 48.6621 14.2111 48.6621 15.48C48.6621 16.637 49.0499 17.5607 49.8255 18.2511ZM56.6396 16.3757C55.9563 17.1595 55.0607 17.5514 53.9527 17.5514C53.1217 17.5514 52.457 17.3461 51.9584 16.9355C51.4598 16.525 51.2105 15.9745 51.2105 15.2841C51.2105 14.463 51.5521 13.8099 52.2354 13.3247C52.9186 12.8209 53.8973 12.513 55.1715 12.401L57.6922 12.1771V13.3527C57.6922 14.5843 57.3413 15.592 56.6396 16.3757Z" fill="white"/>
</svg>
