<svg width="32" height="32" viewBox="0 0 32 32" fill="none" xmlns="http://www.w3.org/2000/svg">
<path fill-rule="evenodd" clip-rule="evenodd" d="M16 32C24.8366 32 32 24.8366 32 16C32 7.16344 24.8366 0 16 0C7.16344 0 0 7.16344 0 16C0 24.8366 7.16344 32 16 32ZM19.008 20.2627L24.2034 11.3965L26.9768 12.9427L21.9069 21.5786C21.155 22.9766 20.0681 24.1735 18.7402 25.0659C17.4943 25.8277 16.0491 26.2151 14.5822 26.1804C13.1937 26.2056 11.8189 25.9068 10.5706 25.3085C9.42946 24.7564 8.47446 23.8924 7.82008 22.8203C7.16569 21.7481 6.83968 20.5131 6.88112 19.2634C6.90232 18.4768 7.04332 17.6978 7.29943 16.9523C7.62475 16.0232 8.04522 15.1289 8.55436 14.2833L13.3273 6.08333L16.0045 7.55144L11.3194 15.9283C11.0057 16.4901 10.7493 17.0811 10.5539 17.6925C10.371 18.2368 10.2737 18.8054 10.2653 19.3785C10.2589 20.1001 10.4496 20.8102 10.8174 21.4347C11.1785 22.0381 11.7046 22.5297 12.3359 22.8535C13.0301 23.2044 13.8018 23.381 14.5822 23.3675C15.4557 23.3902 16.313 23.1333 17.0252 22.6355C17.8556 21.9976 18.5327 21.1874 19.008 20.2627Z" fill="#101010"/>
</svg>
