<svg width="59" height="14" viewBox="0 0 59 14" fill="none" xmlns="http://www.w3.org/2000/svg">
<path fill-rule="evenodd" clip-rule="evenodd" d="M28.2594 1.57108C27.7631 2.08697 27.515 2.7691 27.515 3.61746V13.0411H29.2034V6.88137H31.1081V5.48835H29.2034V4.46008V3.46269C29.2034 3.03851 29.3123 2.70604 29.5302 2.4653C29.7601 2.22454 30.0869 2.10417 30.5105 2.10417C30.7526 2.10417 31.0249 2.13283 31.3275 2.19015V0.900419C31.037 0.831634 30.6558 0.797241 30.1837 0.797241C29.4092 0.797241 28.7677 1.05519 28.2594 1.57108ZM13.7367 13.1093C13.0089 13.1093 12.3575 12.9647 11.7825 12.6754C11.2164 12.3771 10.7717 11.9704 10.4482 11.4551C10.1337 10.9308 9.97648 10.3342 9.97648 9.66534C9.97648 9.33089 10.0439 8.94672 10.1786 8.51283C10.3224 8.07895 10.5246 7.63602 10.7851 7.18406L13.1437 3.06215L13.4161 3.21589L14.3614 3.73578L12.1553 7.78543C11.9963 8.07845 11.8691 8.37984 11.7737 8.68959C11.6783 8.99935 11.6306 9.28818 11.6306 9.55608C11.6306 9.94956 11.722 10.3054 11.9049 10.6235C12.0877 10.9333 12.3422 11.176 12.6681 11.3518C13.0021 11.5277 13.3757 11.6156 13.7892 11.6156C14.2582 11.6156 14.6637 11.49 15.0056 11.2388C15.3554 10.9877 15.6854 10.5816 15.9954 10.0207L18.3748 5.83154L18.3863 5.80964L18.387 5.81007L18.4854 5.6369L18.6075 5.70669L18.6075 5.7066L19.8691 6.39764L17.3218 10.8178C16.8725 11.6043 16.3559 12.1828 15.7719 12.5534C15.1968 12.924 14.5184 13.1093 13.7367 13.1093ZM58.9648 8.81018C58.9884 8.70088 59.0002 8.51263 59.0002 8.24543C59.0002 7.33454 58.817 6.52688 58.4507 5.82246C58.0843 5.10589 57.5821 4.54721 56.944 4.14642C56.3058 3.74563 55.5849 3.54523 54.7813 3.54523C53.9305 3.54523 53.1742 3.75777 52.5124 4.18286C51.8506 4.59579 51.3306 5.16662 50.9525 5.89533C50.5861 6.62404 50.403 7.44385 50.403 8.35474C50.403 9.28992 50.592 10.1279 50.9702 10.8688C51.3602 11.5975 51.892 12.1683 52.5656 12.5813C53.2392 12.9821 54.0014 13.1825 54.8523 13.1825C55.5495 13.1825 56.3757 13.0796 56.9548 12.8246C57.5338 12.5574 57.9267 12.2011 58.2147 11.8343C58.3841 11.6185 58.4471 11.5052 58.474 11.4267L57.5373 10.5188C57.3544 10.8706 57.044 11.1667 56.7388 11.3942C56.2661 11.7464 55.4904 11.889 54.8523 11.889C54.3205 11.889 53.8419 11.7554 53.4164 11.4882C53.0028 11.2089 52.6719 10.8384 52.4238 10.3769C52.1874 9.90325 52.0692 9.38101 52.0692 8.81018H58.9648ZM57.0503 6.25969C57.2748 6.69692 57.3871 7.1888 57.3871 7.73533H52.0692C52.1047 6.87302 52.3706 6.17467 52.8669 5.64028C53.3751 5.09375 54.0073 4.82048 54.7636 4.82048C55.2718 4.82048 55.7208 4.948 56.1108 5.20305C56.5126 5.4581 56.8258 5.81032 57.0503 6.25969ZM49.0264 11.9235C48.8325 12.1367 48.5602 12.3411 48.2093 12.5365C47.8677 12.7319 47.4708 12.8918 47.0184 13.0162C46.5752 13.1406 46.0998 13.2028 45.592 13.2028C44.7242 13.2028 43.9394 13.0073 43.2378 12.6164C42.5454 12.2167 41.9914 11.657 41.576 10.9375C41.1698 10.2179 40.9667 9.37401 40.9667 8.40573C40.9667 7.72171 41.0913 7.09099 41.3406 6.51357C41.5898 5.93615 41.936 5.43423 42.3792 5.00783C42.8223 4.58143 43.3301 4.25274 43.9025 4.02178C44.4749 3.78193 45.0796 3.662 45.7166 3.662C46.2429 3.662 46.7322 3.74195 47.1846 3.90185C47.6462 4.05287 48.0478 4.25275 48.3894 4.50148C48.7402 4.74133 49.0125 4.99895 49.2064 5.27433L48.2093 6.27371C47.8677 5.93615 47.4892 5.65632 47.0738 5.43424C46.6583 5.21215 46.2059 5.10111 45.7166 5.10111C45.1627 5.10111 44.6365 5.23436 44.1379 5.50086C43.6486 5.76736 43.2516 6.14935 42.947 6.64682C42.6423 7.1354 42.49 7.72171 42.49 8.40573C42.49 9.15193 42.6423 9.77377 42.947 10.2712C43.2609 10.7687 43.6717 11.1418 44.1795 11.3905C44.6965 11.6304 45.2504 11.7503 45.8413 11.7503C46.386 11.7503 46.866 11.6482 47.2815 11.4438C47.6969 11.2306 48.0293 10.9997 48.2786 10.7509L49.0264 11.9235ZM4.67 13.1401C3.79956 13.1401 3.02521 12.9721 2.34695 12.6362C1.67999 12.3003 1.15433 11.8356 0.769984 11.2422C0.711381 11.1472 0.65738 11.0502 0.607983 10.951C0.569143 10.8731 0.533149 10.7939 0.5 10.7133L2.07061 9.70257L2.0734 9.71427L2.08474 9.70692C2.19922 10.185 2.43153 10.5971 2.78166 10.9434C3.30167 11.4363 3.96792 11.6828 4.78042 11.6828C5.52792 11.6828 6.13459 11.5006 6.60043 11.1363C7.06626 10.7613 7.29918 10.2845 7.29918 9.70586C7.29918 9.39262 7.21381 9.11207 7.04306 8.86419C6.97971 8.77972 6.90652 8.69901 6.82349 8.62208C6.48436 8.28617 5.99827 8.04543 5.36522 7.89987L3.92391 7.58075C1.74216 7.13287 0.651288 6.01876 0.651288 4.23842C0.651288 3.56659 0.826506 2.97315 1.17694 2.45808C1.52738 1.93182 2.01347 1.52872 2.63521 1.2488C3.26826 0.957671 3.98608 0.812109 4.7887 0.812109C5.61392 0.812109 6.35436 0.985664 7.01001 1.33277C7.66567 1.66869 8.18002 2.14456 8.55306 2.7604C8.58224 2.80771 8.61032 2.85556 8.63729 2.90396C8.69157 3.00136 8.74136 3.10098 8.78667 3.20282L7.70444 3.97186L7.33368 4.24345C7.21292 3.79479 6.99558 3.40832 6.68168 3.08404C6.19418 2.58044 5.57126 2.32864 4.81292 2.32864C4.10875 2.32864 3.53458 2.5108 3.09041 2.8751C2.64625 3.2287 2.42416 3.68944 2.42416 4.25733C2.42416 4.7395 2.57041 5.14131 2.86291 5.46276C2.93764 5.54214 3.0212 5.61558 3.1136 5.68307C3.37237 5.84425 3.68769 5.96735 4.05956 6.05235L5.51783 6.37147C7.83523 6.85294 8.99393 7.95025 8.99393 9.66341C8.99393 10.3352 8.81306 10.9343 8.45132 11.4605C8.08958 11.9868 7.58088 12.4011 6.92523 12.7034C6.26957 12.9945 5.51783 13.1401 4.67 13.1401Z" fill="black"/>
<path d="M22.5014 6.31087H22.5539C22.7083 5.50134 22.9467 5.12814 23.4454 4.67575C23.9561 4.21146 24.6626 4.03162 25.387 4.03162C25.5889 4.03162 25.7849 4.05543 25.9749 4.10304V5.65663C25.7374 5.60901 25.482 5.5852 25.2089 5.5852C24.4014 5.5852 23.7601 5.85901 23.2851 6.40664C22.8503 7.10366 22.6023 7.94599 22.5726 8.79951V13.0496H20.916V4.13876H22.5726L22.5014 6.31087Z" fill="black"/>
<path fill-rule="evenodd" clip-rule="evenodd" d="M32.5301 12.53C33.0406 12.9619 33.7291 13.1778 34.5957 13.1778C35.3911 13.1778 36.0883 13.0289 36.6225 12.6211C37.1567 12.2012 37.2726 12.006 37.5976 11.3547H37.6585C37.6585 12.3504 37.7178 12.596 37.8366 13.0159H39.4392C39.2967 12.2961 39.2255 11.4384 39.2255 10.4427V7.36569C39.2255 6.66992 39.11 5.89025 38.7894 5.35042C38.4689 4.7986 38.0237 4.37274 37.4539 4.07283C36.8841 3.76093 36.2371 3.60498 35.513 3.60498C34.8007 3.60498 34.1656 3.74294 33.6076 4.01885C33.4963 4.0739 33.2407 4.20035 33.0276 4.35108C32.8897 4.44858 32.7736 4.53898 32.6833 4.6263L33.0838 6.05965C33.2598 5.8356 33.4873 5.69642 33.7333 5.56594C34.3472 5.24032 34.7654 5.09559 35.3946 5.09559C36.0119 5.09559 36.6641 5.15807 37.0559 5.56594C37.4476 5.97381 37.5695 6.65792 37.5695 7.29372V7.70759L35.771 7.86953C34.4889 7.9775 33.5036 8.2834 32.815 8.78724C32.1265 9.27908 31.7822 9.93287 31.7822 10.7486C31.7822 11.4924 32.0315 12.0862 32.5301 12.53ZM36.9106 11.3244C36.4714 11.8283 35.8956 12.0802 35.1833 12.0802C34.6491 12.0802 34.2218 11.9482 33.9012 11.6843C33.5807 11.4204 33.4205 11.0665 33.4205 10.6227C33.4205 10.0948 33.6401 9.67496 34.0793 9.36305C34.5185 9.03916 35.1477 8.84122 35.9668 8.76925L37.5873 8.62529V9.38105C37.5873 10.1728 37.3617 10.8206 36.9106 11.3244Z" fill="black"/>
</svg>
