<svg width="72" height="74" viewBox="0 0 72 74" fill="none" xmlns="http://www.w3.org/2000/svg">
<path d="M71.0939 62.9394L53.8055 45.0793C52.5658 43.7979 51.0164 43.2849 50.3451 43.94C49.6715 44.5905 48.121 44.0787 46.8813 42.7974L46.634 42.541C54.3717 32.3643 53.6207 17.7935 44.329 8.50176C34.188 -1.63926 17.7455 -1.63926 7.60577 8.50176C-2.53526 18.6428 -2.53526 35.0829 7.60577 45.2239C17.0558 54.6752 31.9709 55.3082 42.1684 47.1453L42.277 47.2585C43.5143 48.5399 43.9753 50.1055 43.2996 50.757C42.627 51.4087 43.0846 52.9754 44.3256 54.2544L61.6046 72.1216C62.8443 73.3995 64.887 73.4375 66.1696 72.1968L71.0189 67.5047C72.2966 66.2669 72.3313 64.2255 71.0939 62.9394ZM38.6226 39.5171C31.6439 46.4968 20.2876 46.4968 13.3101 39.5194C6.33142 32.5408 6.33249 21.1832 13.3101 14.2058C20.2876 7.22721 31.6439 7.22827 38.6202 14.2069C45.5999 21.1845 45.5999 32.5397 38.6226 39.5171Z" fill="#101010"/>
</svg>
