<svg width="74" height="32" viewBox="0 0 74 32" fill="none" xmlns="http://www.w3.org/2000/svg">
<path d="M0 16C0 7.16344 7.16344 0 16 0H58C66.8366 0 74 7.16344 74 16C74 24.8366 66.8366 32 58 32H16C7.16344 32 0 24.8366 0 16Z" fill="#E8E8E8"/>
<path d="M25.4614 12.5658C25.0114 11.3785 24.3037 10.2988 23.358 9.3567L23 9L22.642 9.3567C21.6963 10.2988 20.9886 11.3786 20.5386 12.5658C20.0885 13.7532 19.9193 14.9869 20.0356 16.2329L20.0368 16.2463L20.9247 21.4946L20.9275 21.509C21.1098 22.373 21.976 23 22.987 23C23.9926 23 24.8579 22.3769 25.0444 21.5184L25.046 21.511L25.9607 16.2613L25.9645 16.2329C26.0807 14.9869 25.9115 13.7532 25.4614 12.5658ZM24.1093 21.372C24.0044 21.8375 23.5337 22.1746 22.987 22.1746C22.4373 22.1746 21.966 21.8352 21.8634 21.3667L21.2655 17.8328H24.7259L24.1093 21.372ZM24.8697 17.0074H21.1259L20.9958 16.2385L23 14.4973L25.0037 16.2381L24.8697 17.0074ZM23 13.33L20.9596 15.1027C20.9985 14.3299 21.1594 13.567 21.441 12.8241C21.7922 11.8974 22.3156 11.0427 23 10.277C23.6844 11.0427 24.2078 11.8974 24.559 12.8241C24.8406 13.567 25.0015 14.3299 25.0404 15.1027L23 13.33Z" fill="#424242"/>
<path d="M38.228 21.14C37.6773 21.14 37.1733 21.042 36.716 20.846C36.268 20.6407 35.876 20.3607 35.54 20.006C35.2133 19.6513 34.9567 19.2453 34.77 18.788C34.5927 18.3307 34.504 17.8453 34.504 17.332C34.504 16.6413 34.658 16.0113 34.966 15.442C35.274 14.8727 35.708 14.42 36.268 14.084C36.828 13.7387 37.4767 13.566 38.214 13.566C38.9327 13.566 39.558 13.7293 40.09 14.056C40.6313 14.3733 41.0327 14.8027 41.294 15.344L40.09 15.722C39.9033 15.3767 39.642 15.1107 39.306 14.924C38.97 14.728 38.5967 14.63 38.186 14.63C37.738 14.63 37.3273 14.7467 36.954 14.98C36.59 15.2133 36.3007 15.5353 36.086 15.946C35.8713 16.3473 35.764 16.8093 35.764 17.332C35.764 17.8453 35.8713 18.312 36.086 18.732C36.31 19.1427 36.604 19.4693 36.968 19.712C37.3413 19.9547 37.752 20.076 38.2 20.076C38.4893 20.076 38.7647 20.0247 39.026 19.922C39.2967 19.8193 39.53 19.684 39.726 19.516C39.9313 19.3387 40.0713 19.1473 40.146 18.942L41.35 19.306C41.2007 19.6607 40.972 19.978 40.664 20.258C40.3653 20.5287 40.006 20.7433 39.586 20.902C39.1753 21.0607 38.7227 21.14 38.228 21.14ZM42.172 18.886C42.172 18.4193 42.3026 18.018 42.564 17.682C42.8346 17.3367 43.2033 17.0707 43.67 16.884C44.1366 16.6973 44.678 16.604 45.294 16.604C45.6206 16.604 45.966 16.632 46.33 16.688C46.694 16.7347 47.016 16.8093 47.296 16.912V16.38C47.296 15.82 47.128 15.3813 46.792 15.064C46.456 14.7373 45.98 14.574 45.364 14.574C44.9626 14.574 44.5753 14.6487 44.202 14.798C43.838 14.938 43.4506 15.1433 43.04 15.414L42.592 14.546C43.068 14.2193 43.544 13.9767 44.02 13.818C44.496 13.65 44.9906 13.566 45.504 13.566C46.4373 13.566 47.1746 13.8273 47.716 14.35C48.2573 14.8633 48.528 15.582 48.528 16.506V19.6C48.528 19.7493 48.556 19.8613 48.612 19.936C48.6773 20.0013 48.78 20.0387 48.92 20.048V21C48.7986 21.0187 48.6913 21.0327 48.598 21.042C48.514 21.0513 48.444 21.056 48.388 21.056C48.0986 21.056 47.8793 20.9767 47.73 20.818C47.59 20.6593 47.5106 20.4913 47.492 20.314L47.464 19.852C47.1466 20.2627 46.7313 20.58 46.218 20.804C45.7046 21.028 45.196 21.14 44.692 21.14C44.2066 21.14 43.7726 21.042 43.39 20.846C43.0073 20.6407 42.7086 20.37 42.494 20.034C42.2793 19.6887 42.172 19.306 42.172 18.886ZM46.932 19.404C47.044 19.2733 47.1326 19.1427 47.198 19.012C47.2633 18.872 47.296 18.7553 47.296 18.662V17.752C47.0066 17.64 46.7033 17.556 46.386 17.5C46.0686 17.4347 45.756 17.402 45.448 17.402C44.8226 17.402 44.314 17.528 43.922 17.78C43.5393 18.0227 43.348 18.3587 43.348 18.788C43.348 19.0213 43.4086 19.25 43.53 19.474C43.6606 19.6887 43.8473 19.866 44.09 20.006C44.342 20.146 44.65 20.216 45.014 20.216C45.3966 20.216 45.7606 20.1413 46.106 19.992C46.4513 19.8333 46.7266 19.6373 46.932 19.404ZM50.4839 21V13.692H56.5459V21H55.3139V14.784H51.7159V21H50.4839Z" fill="#424242"/>
</svg>
