<svg width="82" height="32" viewBox="0 0 82 32" fill="none" xmlns="http://www.w3.org/2000/svg">
<path d="M0 16C0 7.16344 7.16344 0 16 0H66C74.8366 0 82 7.16344 82 16C82 24.8366 74.8366 32 66 32H16C7.16344 32 0 24.8366 0 16Z" fill="#E8E8E8"/>
<path d="M23.8378 9.13417C23.6567 8.95521 23.3432 8.95534 23.1622 9.13417C21.123 11.1494 20 13.7592 20 16.4827V22.5895C20 22.8792 20.3262 23.078 20.6261 22.9703C20.9014 22.8714 23.2257 22.0361 23.5 21.9376C23.7724 22.0354 26.0986 22.8714 26.3739 22.9703C26.6728 23.0777 27 22.8803 27 22.5895V16.4827C27 13.7592 25.877 11.1494 23.8378 9.13417ZM22.8913 10.7588C23.0815 10.5106 23.2843 10.2691 23.5 10.0354C23.7157 10.2691 23.9185 10.5106 24.1087 10.7588V15.5897H22.8913V10.7588ZM24.1087 21.2728L23.6696 21.115C23.5607 21.0759 23.4393 21.0758 23.3304 21.115L22.8913 21.2728V19.1168H24.1087V21.2728ZM26.087 21.9837L25.0218 21.6009V18.7066C25.0218 18.4801 24.8174 18.2965 24.5652 18.2965H22.4348C22.1827 18.2965 21.9783 18.4801 21.9783 18.7066V21.6009L20.9131 21.9837V16.4827C20.9131 14.9826 21.2819 13.5199 21.9783 12.1883V15.9998C21.9783 16.2263 22.1827 16.41 22.4348 16.41H24.5652C24.8174 16.41 25.0218 16.2263 25.0218 15.9998V12.1883C25.7181 13.5199 26.087 14.9825 26.087 16.4827V21.9837Z" fill="#424242"/>
<path d="M34.98 21V13.692H38.76C39.1987 13.692 39.5627 13.7807 39.852 13.958C40.1413 14.126 40.356 14.3453 40.496 14.616C40.6453 14.8867 40.72 15.176 40.72 15.484C40.72 15.876 40.6267 16.2307 40.44 16.548C40.2533 16.856 39.9827 17.0893 39.628 17.248C40.048 17.3693 40.3887 17.5887 40.65 17.906C40.9113 18.214 41.042 18.5967 41.042 19.054C41.042 19.4647 40.944 19.8147 40.748 20.104C40.552 20.3933 40.2767 20.6173 39.922 20.776C39.5673 20.9253 39.1567 21 38.69 21H34.98ZM36.156 20.132H38.662C38.886 20.132 39.0867 20.076 39.264 19.964C39.4507 19.852 39.5953 19.7027 39.698 19.516C39.8007 19.3293 39.852 19.1333 39.852 18.928C39.852 18.704 39.8007 18.5033 39.698 18.326C39.6047 18.1393 39.4693 17.9947 39.292 17.892C39.124 17.78 38.928 17.724 38.704 17.724H36.156V20.132ZM36.156 16.912H38.438C38.662 16.912 38.858 16.856 39.026 16.744C39.194 16.6227 39.3247 16.4687 39.418 16.282C39.5113 16.0953 39.558 15.8993 39.558 15.694C39.558 15.386 39.4553 15.12 39.25 14.896C39.054 14.672 38.7973 14.56 38.48 14.56H36.156V16.912ZM45.8432 21.14C45.2926 21.14 44.7886 21.042 44.3312 20.846C43.8832 20.6407 43.4912 20.3653 43.1552 20.02C42.8286 19.6653 42.5719 19.2593 42.3852 18.802C42.2079 18.3447 42.1192 17.8593 42.1192 17.346C42.1192 16.6553 42.2779 16.0253 42.5952 15.456C42.9126 14.8867 43.3512 14.4293 43.9112 14.084C44.4806 13.7387 45.1292 13.566 45.8572 13.566C46.5946 13.566 47.2339 13.7433 47.7752 14.098C48.3259 14.4433 48.7506 14.9007 49.0492 15.47C49.3572 16.03 49.5112 16.6367 49.5112 17.29C49.5112 17.3833 49.5066 17.4767 49.4972 17.57C49.4972 17.654 49.4926 17.7193 49.4832 17.766H43.4212C43.4586 18.242 43.5892 18.6667 43.8132 19.04C44.0466 19.404 44.3452 19.6933 44.7092 19.908C45.0732 20.1133 45.4652 20.216 45.8852 20.216C46.3332 20.216 46.7532 20.104 47.1452 19.88C47.5466 19.656 47.8219 19.362 47.9712 18.998L49.0352 19.292C48.8766 19.6467 48.6386 19.964 48.3212 20.244C48.0132 20.524 47.6446 20.7433 47.2152 20.902C46.7952 21.0607 46.3379 21.14 45.8432 21.14ZM43.3792 16.912H48.3632C48.3259 16.436 48.1906 16.016 47.9572 15.652C47.7239 15.288 47.4252 15.0033 47.0612 14.798C46.6972 14.5927 46.2959 14.49 45.8572 14.49C45.4279 14.49 45.0312 14.5927 44.6672 14.798C44.3032 15.0033 44.0046 15.288 43.7712 15.652C43.5472 16.016 43.4166 16.436 43.3792 16.912ZM50.8667 21V13.706H52.0987V19.348L56.1867 13.692H57.3067V21H56.0747V15.47L52.0427 21H50.8667ZM54.1007 12.866C53.4287 12.866 52.9201 12.7073 52.5747 12.39C52.2294 12.0633 52.0567 11.662 52.0567 11.186H52.9247C52.9247 11.4473 53.0134 11.6667 53.1907 11.844C53.3774 12.012 53.6807 12.096 54.1007 12.096C54.5114 12.096 54.8007 12.0167 54.9687 11.858C55.1367 11.69 55.2394 11.466 55.2767 11.186H56.1447C56.1447 11.662 55.9721 12.0633 55.6267 12.39C55.2814 12.7073 54.7727 12.866 54.1007 12.866ZM59.2613 21V13.692H60.4933V16.702H61.3053L63.6013 13.692H65.0013L62.2713 17.234L65.3233 21H63.8953L61.3053 17.836H60.4933V21H59.2613Z" fill="#424242"/>
</svg>
