<svg width="195" height="32" viewBox="0 0 195 32" fill="none" xmlns="http://www.w3.org/2000/svg">
<rect width="195" height="32" rx="16" fill="#E8E8E8"/>
<path d="M25.8796 17.9018C25.1032 17.9018 24.3725 17.6004 23.822 17.053C23.8084 17.0395 23.795 17.0258 23.7817 17.012C24.0028 17.0755 24.2339 17.109 24.4703 17.109C25.133 17.109 25.7561 16.8509 26.2247 16.3822C27.4643 15.1427 27.4643 13.1257 26.2247 11.8862C24.6213 10.2827 22.0123 10.2827 20.4089 11.8862C19.4616 12.8335 18.906 14.0917 18.8446 15.429L18.8441 15.4399L18.8442 15.4508C18.849 16.1041 18.5982 16.7192 18.1379 17.1829C17.6776 17.6465 17.0643 17.9018 16.4102 17.9018H16V20.7695H16.4102C16.8628 20.7695 17.067 20.8712 17.3256 20.9999C17.6235 21.1482 17.9611 21.3164 18.6067 21.3164C19.2523 21.3164 19.5899 21.1483 19.8878 20.9999C20.1464 20.8712 20.3506 20.7695 20.8033 20.7695C21.256 20.7695 21.4602 20.8712 21.7187 20.9999C22.0166 21.1482 22.3542 21.3164 22.9998 21.3164C23.6455 21.3164 23.9831 21.1483 24.281 20.9999C24.5395 20.8712 24.7438 20.7695 25.1964 20.7695C25.6492 20.7695 25.8534 20.8712 26.112 20.9999C26.4099 21.1483 26.7475 21.3164 27.3931 21.3164C28.0388 21.3164 28.3764 21.1483 28.6743 20.9999C28.9329 20.8712 29.1371 20.7695 29.5898 20.7695H30V17.9018H25.8796ZM29.1797 19.9751C28.7868 20.0277 28.5361 20.1524 28.3087 20.2656C28.0501 20.3944 27.8459 20.4961 27.3932 20.4961C26.9404 20.4961 26.7362 20.3944 26.4776 20.2656C26.1797 20.1173 25.8421 19.9492 25.1965 19.9492C24.5508 19.9492 24.2132 20.1173 23.9153 20.2656C23.6568 20.3944 23.4525 20.4961 22.9998 20.4961C22.5472 20.4961 22.343 20.3944 22.0844 20.2656C21.7865 20.1173 21.4489 19.9492 20.8033 19.9492C20.1577 19.9492 19.82 20.1173 19.5222 20.2656C19.2636 20.3944 19.0594 20.4961 18.6067 20.4961C18.154 20.4961 17.9498 20.3944 17.6912 20.2656C17.4639 20.1524 17.2132 20.0278 16.8203 19.9751V18.6969C17.5384 18.6074 18.2018 18.2828 18.72 17.7608C19.3327 17.1436 19.6679 16.3255 19.6645 15.4563C19.7189 14.3276 20.189 13.2661 20.9889 12.4662C22.2725 11.1826 24.361 11.1826 25.6447 12.4662C26.5644 13.386 26.5644 14.8825 25.6447 15.8022C24.997 16.4498 23.9434 16.4498 23.2958 15.8022C22.8518 15.3582 22.8518 14.6357 23.2958 14.1916C23.4371 14.0503 23.6251 13.9725 23.825 13.9725C24.0249 13.9725 24.2128 14.0503 24.3542 14.1916L24.9342 13.6116C24.6379 13.3153 24.244 13.1521 23.825 13.1521C23.406 13.1521 23.012 13.3153 22.7157 13.6116C22.3317 13.9956 22.1409 14.5007 22.143 15.0051L22.141 15.0052C22.1467 15.9997 22.5383 16.9336 23.2436 17.6348C23.9488 18.3361 24.885 18.7222 25.8795 18.7222H29.1797V19.9751Z" fill="#424242"/>
<path d="M34.98 21V13.706H36.212V19.348L40.3 13.692H41.42V21H40.188V15.47L36.156 21H34.98ZM46.6225 21.14C46.0719 21.14 45.5679 21.042 45.1105 20.846C44.6625 20.6407 44.2705 20.3607 43.9345 20.006C43.6079 19.6513 43.3512 19.2453 43.1645 18.788C42.9872 18.3307 42.8985 17.8453 42.8985 17.332C42.8985 16.6413 43.0525 16.0113 43.3605 15.442C43.6685 14.8727 44.1025 14.42 44.6625 14.084C45.2225 13.7387 45.8712 13.566 46.6085 13.566C47.3272 13.566 47.9525 13.7293 48.4845 14.056C49.0259 14.3733 49.4272 14.8027 49.6885 15.344L48.4845 15.722C48.2979 15.3767 48.0365 15.1107 47.7005 14.924C47.3645 14.728 46.9912 14.63 46.5805 14.63C46.1325 14.63 45.7219 14.7467 45.3485 14.98C44.9845 15.2133 44.6952 15.5353 44.4805 15.946C44.2659 16.3473 44.1585 16.8093 44.1585 17.332C44.1585 17.8453 44.2659 18.312 44.4805 18.732C44.7045 19.1427 44.9985 19.4693 45.3625 19.712C45.7359 19.9547 46.1465 20.076 46.5945 20.076C46.8839 20.076 47.1592 20.0247 47.4205 19.922C47.6912 19.8193 47.9245 19.684 48.1205 19.516C48.3259 19.3387 48.4659 19.1473 48.5405 18.942L49.7445 19.306C49.5952 19.6607 49.3665 19.978 49.0585 20.258C48.7599 20.5287 48.4005 20.7433 47.9805 20.902C47.5699 21.0607 47.1172 21.14 46.6225 21.14ZM51.1265 21V13.692H52.3585V16.702H53.1705L55.4665 13.692H56.8665L54.1365 17.234L57.1885 21H55.7605L53.1705 17.836H52.3585V21H51.1265ZM59.3103 24.066C59.1516 24.066 58.9883 24.0427 58.8203 23.996C58.6616 23.9493 58.4983 23.8793 58.3302 23.786L58.7503 22.946C58.8343 22.9927 58.9136 23.0253 58.9883 23.044C59.0723 23.072 59.1516 23.086 59.2263 23.086C59.4503 23.086 59.6603 22.9787 59.8563 22.764C60.0616 22.5587 60.2529 22.2413 60.4303 21.812L60.7803 20.93L57.5743 13.692H58.8763L61.3403 19.754L63.5663 13.692H64.7843L61.3683 22.19C61.2003 22.61 61.0089 22.9553 60.7943 23.226C60.5796 23.506 60.3463 23.716 60.0943 23.856C59.8423 23.996 59.5809 24.066 59.3103 24.066ZM69.0034 21.14C68.4527 21.14 67.9487 21.042 67.4914 20.846C67.0434 20.6407 66.6514 20.3607 66.3154 20.006C65.9887 19.6513 65.7321 19.2453 65.5454 18.788C65.3681 18.3307 65.2794 17.8453 65.2794 17.332C65.2794 16.6413 65.4334 16.0113 65.7414 15.442C66.0494 14.8727 66.4834 14.42 67.0434 14.084C67.6034 13.7387 68.2521 13.566 68.9894 13.566C69.7081 13.566 70.3334 13.7293 70.8654 14.056C71.4067 14.3733 71.8081 14.8027 72.0694 15.344L70.8654 15.722C70.6787 15.3767 70.4174 15.1107 70.0814 14.924C69.7454 14.728 69.3721 14.63 68.9614 14.63C68.5134 14.63 68.1027 14.7467 67.7294 14.98C67.3654 15.2133 67.0761 15.5353 66.8614 15.946C66.6467 16.3473 66.5394 16.8093 66.5394 17.332C66.5394 17.8453 66.6467 18.312 66.8614 18.732C67.0854 19.1427 67.3794 19.4693 67.7434 19.712C68.1167 19.9547 68.5274 20.076 68.9754 20.076C69.2647 20.076 69.5401 20.0247 69.8014 19.922C70.0721 19.8193 70.3054 19.684 70.5014 19.516C70.7067 19.3387 70.8467 19.1473 70.9214 18.942L72.1254 19.306C71.9761 19.6607 71.7474 19.978 71.4394 20.258C71.1407 20.5287 70.7814 20.7433 70.3614 20.902C69.9507 21.0607 69.4981 21.14 69.0034 21.14ZM76.687 21.14C76.1363 21.14 75.6323 21.042 75.175 20.846C74.727 20.6407 74.335 20.3607 73.999 20.006C73.6723 19.6513 73.4157 19.2453 73.229 18.788C73.0517 18.3307 72.963 17.8453 72.963 17.332C72.963 16.6413 73.117 16.0113 73.425 15.442C73.733 14.8727 74.167 14.42 74.727 14.084C75.287 13.7387 75.9357 13.566 76.673 13.566C77.3917 13.566 78.017 13.7293 78.549 14.056C79.0903 14.3733 79.4917 14.8027 79.753 15.344L78.549 15.722C78.3623 15.3767 78.101 15.1107 77.765 14.924C77.429 14.728 77.0557 14.63 76.645 14.63C76.197 14.63 75.7863 14.7467 75.413 14.98C75.049 15.2133 74.7597 15.5353 74.545 15.946C74.3303 16.3473 74.223 16.8093 74.223 17.332C74.223 17.8453 74.3303 18.312 74.545 18.732C74.769 19.1427 75.063 19.4693 75.427 19.712C75.8003 19.9547 76.211 20.076 76.659 20.076C76.9483 20.076 77.2237 20.0247 77.485 19.922C77.7557 19.8193 77.989 19.684 78.185 19.516C78.3903 19.3387 78.5303 19.1473 78.605 18.942L79.809 19.306C79.6597 19.6607 79.431 19.978 79.123 20.258C78.8243 20.5287 78.465 20.7433 78.045 20.902C77.6343 21.0607 77.1817 21.14 76.687 21.14ZM82.9829 21V14.784H80.4629V13.692H86.7349V14.784H84.2149V21H82.9829ZM87.9585 21V13.692H91.7385C92.1772 13.692 92.5412 13.7807 92.8305 13.958C93.1198 14.126 93.3345 14.3453 93.4745 14.616C93.6238 14.8867 93.6985 15.176 93.6985 15.484C93.6985 15.876 93.6052 16.2307 93.4185 16.548C93.2318 16.856 92.9612 17.0893 92.6065 17.248C93.0265 17.3693 93.3672 17.5887 93.6285 17.906C93.8898 18.214 94.0205 18.5967 94.0205 19.054C94.0205 19.4647 93.9225 19.8147 93.7265 20.104C93.5305 20.3933 93.2552 20.6173 92.9005 20.776C92.5458 20.9253 92.1352 21 91.6685 21H87.9585ZM89.1345 20.132H91.6405C91.8645 20.132 92.0652 20.076 92.2425 19.964C92.4292 19.852 92.5738 19.7027 92.6765 19.516C92.7792 19.3293 92.8305 19.1333 92.8305 18.928C92.8305 18.704 92.7792 18.5033 92.6765 18.326C92.5832 18.1393 92.4478 17.9947 92.2705 17.892C92.1025 17.78 91.9065 17.724 91.6825 17.724H89.1345V20.132ZM89.1345 16.912H91.4165C91.6405 16.912 91.8365 16.856 92.0045 16.744C92.1725 16.6227 92.3032 16.4687 92.3965 16.282C92.4898 16.0953 92.5365 15.8993 92.5365 15.694C92.5365 15.386 92.4338 15.12 92.2285 14.896C92.0325 14.672 91.7758 14.56 91.4585 14.56H89.1345V16.912ZM98.8218 21.14C98.2711 21.14 97.7671 21.042 97.3098 20.846C96.8618 20.6407 96.4698 20.3653 96.1338 20.02C95.8071 19.6653 95.5504 19.2593 95.3638 18.802C95.1864 18.3447 95.0978 17.8593 95.0978 17.346C95.0978 16.6553 95.2564 16.0253 95.5738 15.456C95.8911 14.8867 96.3298 14.4293 96.8898 14.084C97.4591 13.7387 98.1078 13.566 98.8358 13.566C99.5731 13.566 100.212 13.7433 100.754 14.098C101.304 14.4433 101.729 14.9007 102.028 15.47C102.336 16.03 102.49 16.6367 102.49 17.29C102.49 17.3833 102.485 17.4767 102.476 17.57C102.476 17.654 102.471 17.7193 102.462 17.766H96.3998C96.4371 18.242 96.5678 18.6667 96.7918 19.04C97.0251 19.404 97.3238 19.6933 97.6878 19.908C98.0518 20.1133 98.4438 20.216 98.8638 20.216C99.3118 20.216 99.7318 20.104 100.124 19.88C100.525 19.656 100.8 19.362 100.95 18.998L102.014 19.292C101.855 19.6467 101.617 19.964 101.3 20.244C100.992 20.524 100.623 20.7433 100.194 20.902C99.7738 21.0607 99.3164 21.14 98.8218 21.14ZM96.3578 16.912H101.342C101.304 16.436 101.169 16.016 100.936 15.652C100.702 15.288 100.404 15.0033 100.04 14.798C99.6758 14.5927 99.2744 14.49 98.8358 14.49C98.4064 14.49 98.0098 14.5927 97.6458 14.798C97.2818 15.0033 96.9831 15.288 96.7498 15.652C96.5258 16.016 96.3951 16.436 96.3578 16.912ZM103.845 21V13.692H105.077V16.716H108.885V13.692H110.117V21H108.885V17.808H105.077V21H103.845ZM112.089 21V13.692H113.321V16.716H117.129V13.692H118.361V21H117.129V17.808H113.321V21H112.089ZM119.774 18.886C119.774 18.4193 119.904 18.018 120.166 17.682C120.436 17.3367 120.805 17.0707 121.272 16.884C121.738 16.6973 122.28 16.604 122.896 16.604C123.222 16.604 123.568 16.632 123.932 16.688C124.296 16.7347 124.618 16.8093 124.898 16.912V16.38C124.898 15.82 124.73 15.3813 124.394 15.064C124.058 14.7373 123.582 14.574 122.966 14.574C122.564 14.574 122.177 14.6487 121.804 14.798C121.44 14.938 121.052 15.1433 120.642 15.414L120.194 14.546C120.67 14.2193 121.146 13.9767 121.622 13.818C122.098 13.65 122.592 13.566 123.106 13.566C124.039 13.566 124.776 13.8273 125.318 14.35C125.859 14.8633 126.13 15.582 126.13 16.506V19.6C126.13 19.7493 126.158 19.8613 126.214 19.936C126.279 20.0013 126.382 20.0387 126.522 20.048V21C126.4 21.0187 126.293 21.0327 126.2 21.042C126.116 21.0513 126.046 21.056 125.99 21.056C125.7 21.056 125.481 20.9767 125.332 20.818C125.192 20.6593 125.112 20.4913 125.094 20.314L125.066 19.852C124.748 20.2627 124.333 20.58 123.82 20.804C123.306 21.028 122.798 21.14 122.294 21.14C121.808 21.14 121.374 21.042 120.992 20.846C120.609 20.6407 120.31 20.37 120.096 20.034C119.881 19.6887 119.774 19.306 119.774 18.886ZM124.534 19.404C124.646 19.2733 124.734 19.1427 124.8 19.012C124.865 18.872 124.898 18.7553 124.898 18.662V17.752C124.608 17.64 124.305 17.556 123.988 17.5C123.67 17.4347 123.358 17.402 123.05 17.402C122.424 17.402 121.916 17.528 121.524 17.78C121.141 18.0227 120.95 18.3587 120.95 18.788C120.95 19.0213 121.01 19.25 121.132 19.474C121.262 19.6887 121.449 19.866 121.692 20.006C121.944 20.146 122.252 20.216 122.616 20.216C122.998 20.216 123.362 20.1413 123.708 19.992C124.053 19.8333 124.328 19.6373 124.534 19.404ZM127.553 21L129.625 18.06C129.149 17.9667 128.767 17.7427 128.477 17.388C128.188 17.024 128.043 16.5387 128.043 15.932C128.043 15.4933 128.146 15.106 128.351 14.77C128.557 14.434 128.841 14.168 129.205 13.972C129.579 13.776 130.013 13.678 130.507 13.678H133.503V21H132.271V18.256H130.843L128.911 21H127.553ZM130.591 17.346H132.271V14.644H130.731C130.293 14.644 129.943 14.77 129.681 15.022C129.42 15.2647 129.289 15.5773 129.289 15.96C129.289 16.3427 129.397 16.6693 129.611 16.94C129.835 17.2107 130.162 17.346 130.591 17.346ZM139.023 21V13.692H142.803C143.242 13.692 143.606 13.7807 143.895 13.958C144.184 14.126 144.399 14.3453 144.539 14.616C144.688 14.8867 144.763 15.176 144.763 15.484C144.763 15.876 144.67 16.2307 144.483 16.548C144.296 16.856 144.026 17.0893 143.671 17.248C144.091 17.3693 144.432 17.5887 144.693 17.906C144.954 18.214 145.085 18.5967 145.085 19.054C145.085 19.4647 144.987 19.8147 144.791 20.104C144.595 20.3933 144.32 20.6173 143.965 20.776C143.61 20.9253 143.2 21 142.733 21H139.023ZM140.199 20.132H142.705C142.929 20.132 143.13 20.076 143.307 19.964C143.494 19.852 143.638 19.7027 143.741 19.516C143.844 19.3293 143.895 19.1333 143.895 18.928C143.895 18.704 143.844 18.5033 143.741 18.326C143.648 18.1393 143.512 17.9947 143.335 17.892C143.167 17.78 142.971 17.724 142.747 17.724H140.199V20.132ZM140.199 16.912H142.481C142.705 16.912 142.901 16.856 143.069 16.744C143.237 16.6227 143.368 16.4687 143.461 16.282C143.554 16.0953 143.601 15.8993 143.601 15.694C143.601 15.386 143.498 15.12 143.293 14.896C143.097 14.672 142.84 14.56 142.523 14.56H140.199V16.912ZM149.844 21.14C149.294 21.14 148.794 21.042 148.346 20.846C147.898 20.6407 147.511 20.3653 147.184 20.02C146.858 19.6653 146.606 19.2593 146.428 18.802C146.251 18.3447 146.162 17.864 146.162 17.36C146.162 16.8467 146.251 16.3613 146.428 15.904C146.606 15.4467 146.858 15.0453 147.184 14.7C147.511 14.3453 147.898 14.07 148.346 13.874C148.804 13.6687 149.308 13.566 149.858 13.566C150.4 13.566 150.894 13.6687 151.342 13.874C151.79 14.07 152.178 14.3453 152.504 14.7C152.84 15.0453 153.097 15.4467 153.274 15.904C153.452 16.3613 153.54 16.8467 153.54 17.36C153.54 17.864 153.452 18.3447 153.274 18.802C153.097 19.2593 152.845 19.6653 152.518 20.02C152.192 20.3653 151.8 20.6407 151.342 20.846C150.894 21.042 150.395 21.14 149.844 21.14ZM147.422 17.374C147.422 17.878 147.53 18.3353 147.744 18.746C147.968 19.1567 148.262 19.4833 148.626 19.726C148.99 19.9593 149.396 20.076 149.844 20.076C150.292 20.076 150.698 19.9547 151.062 19.712C151.436 19.4693 151.73 19.1427 151.944 18.732C152.168 18.312 152.28 17.85 152.28 17.346C152.28 16.842 152.168 16.3847 151.944 15.974C151.73 15.5633 151.436 15.2367 151.062 14.994C150.698 14.7513 150.292 14.63 149.844 14.63C149.396 14.63 148.99 14.756 148.626 15.008C148.262 15.2507 147.968 15.5773 147.744 15.988C147.53 16.3987 147.422 16.8607 147.422 17.374ZM154.389 21.056V19.95C154.632 19.95 154.846 19.8893 155.033 19.768C155.229 19.6373 155.402 19.4227 155.551 19.124C155.7 18.816 155.817 18.396 155.901 17.864C155.994 17.3227 156.055 16.6367 156.083 15.806L156.167 13.692H161.137V21H159.905V14.784H157.259L157.231 15.918C157.194 16.9167 157.11 17.7473 156.979 18.41C156.848 19.0727 156.666 19.5953 156.433 19.978C156.2 20.3607 155.91 20.636 155.565 20.804C155.229 20.972 154.837 21.056 154.389 21.056ZM163.113 21V13.692H164.345V16.716H168.153V13.692H169.385V21H168.153V17.808H164.345V21H163.113ZM170.797 18.886C170.797 18.4193 170.928 18.018 171.189 17.682C171.46 17.3367 171.828 17.0707 172.295 16.884C172.762 16.6973 173.303 16.604 173.919 16.604C174.246 16.604 174.591 16.632 174.955 16.688C175.319 16.7347 175.641 16.8093 175.921 16.912V16.38C175.921 15.82 175.753 15.3813 175.417 15.064C175.081 14.7373 174.605 14.574 173.989 14.574C173.588 14.574 173.2 14.6487 172.827 14.798C172.463 14.938 172.076 15.1433 171.665 15.414L171.217 14.546C171.693 14.2193 172.169 13.9767 172.645 13.818C173.121 13.65 173.616 13.566 174.129 13.566C175.062 13.566 175.8 13.8273 176.341 14.35C176.882 14.8633 177.153 15.582 177.153 16.506V19.6C177.153 19.7493 177.181 19.8613 177.237 19.936C177.302 20.0013 177.405 20.0387 177.545 20.048V21C177.424 21.0187 177.316 21.0327 177.223 21.042C177.139 21.0513 177.069 21.056 177.013 21.056C176.724 21.056 176.504 20.9767 176.355 20.818C176.215 20.6593 176.136 20.4913 176.117 20.314L176.089 19.852C175.772 20.2627 175.356 20.58 174.843 20.804C174.33 21.028 173.821 21.14 173.317 21.14C172.832 21.14 172.398 21.042 172.015 20.846C171.632 20.6407 171.334 20.37 171.119 20.034C170.904 19.6887 170.797 19.306 170.797 18.886ZM175.557 19.404C175.669 19.2733 175.758 19.1427 175.823 19.012C175.888 18.872 175.921 18.7553 175.921 18.662V17.752C175.632 17.64 175.328 17.556 175.011 17.5C174.694 17.4347 174.381 17.402 174.073 17.402C173.448 17.402 172.939 17.528 172.547 17.78C172.164 18.0227 171.973 18.3587 171.973 18.788C171.973 19.0213 172.034 19.25 172.155 19.474C172.286 19.6887 172.472 19.866 172.715 20.006C172.967 20.146 173.275 20.216 173.639 20.216C174.022 20.216 174.386 20.1413 174.731 19.992C175.076 19.8333 175.352 19.6373 175.557 19.404Z" fill="#424242"/>
</svg>
